<?xml version="1.0" encoding="UTF-8"?>
<svg viewBox="0 0 24 24" version="1.1" xmlns="http://www.w3.org/2000/svg" xmlns:xlink="http://www.w3.org/1999/xlink">
    <path transform="translate(8.000000, 5.000000)" d="M1.25,12.5 C0.559644062,12.5 0,13.0596441 0,13.75 C0,14.4403559 0.559644062,15 1.25,15 C1.94035594,15 2.5,14.4403559 2.5,13.75 C2.5,13.0596441 1.94035594,12.5 1.25,12.5 Z M1.25,6.25 C0.559644062,6.25 0,6.80964406 0,7.5 C0,8.19035594 0.559644062,8.75 1.25,8.75 C1.94035594,8.75 2.5,8.19035594 2.5,7.5 C2.5,6.80964406 1.94035594,6.25 1.25,6.25 Z M1.25,0 C0.559644062,0 0,0.559644121 0,1.25 C0,1.94035588 0.559644062,2.5 1.25,2.5 C1.94035594,2.5 2.5,1.94035588 2.5,1.25 C2.5,0.559644121 1.94035594,0 1.25,0 Z M6.25,12.5 C5.55964406,12.5 5,13.0596441 5,13.75 C5,14.4403559 5.55964406,15 6.25,15 C6.94035588,15 7.5,14.4403559 7.5,13.75 C7.5,13.0596441 6.94035588,12.5 6.25,12.5 Z M6.25,6.25 C5.55964406,6.25 5,6.80964406 5,7.5 C5,8.19035594 5.55964406,8.75 6.25,8.75 C6.94035588,8.75 7.5,8.19035594 7.5,7.5 C7.5,6.80964406 6.94035588,6.25 6.25,6.25 Z M6.25,0 C5.55964406,0 5,0.559644121 5,1.25 C5,1.94035588 5.55964406,2.5 6.25,2.5 C6.94035588,2.5 7.5,1.94035588 7.5,1.25 C7.5,0.559644121 6.94035588,0 6.25,0 Z" id="形状"></path>
</svg>