<?xml version="1.0" encoding="UTF-8"?>
<svg width="24px" height="24px" viewBox="0 0 24 24" version="1.1" xmlns="http://www.w3.org/2000/svg" xmlns:xlink="http://www.w3.org/1999/xlink">
    <path transform="translate(4.000000, 3.000000)" d="M8.00685435,2.1084375 C9.80383517,2.1084375 11.2847001,3.41046875 11.5095879,5.09640625 L13.6269278,5.09640625 C13.376581,2.2425 10.9367605,0 7.96017952,0 C4.98359853,0 2.54589963,2.2425 2.29555284,5.09640625 L4.50624235,5.09640625 C4.72688698,3.41046875 6.20987352,2.1084375 8.00685435,2.1084375 Z M13.223827,6.3375 L2.37405141,6.3375 C1.0629131,6.3375 0,7.35515625 0,8.61046875 L0,15.925 C0,17.1803125 1.0629131,18.1979688 2.37405141,18.1979688 L13.2259486,18.1979688 C14.5392085,18.1979688 15.6,17.1803125 15.6,15.925 L15.6,8.6125 C15.6,7.3571875 14.5349653,6.3375 13.223827,6.3375 Z M8.80881273,12.46375 L8.80881273,14.1151563 C8.80881273,14.67375 8.33569971,15.1246875 7.75438596,15.1246875 C7.17095063,15.1246875 6.6999592,14.6717188 6.6999592,14.1151563 L6.6999592,12.488125 C6.41566707,12.2260938 6.2374541,11.8604688 6.2374541,11.4521875 C6.2374541,10.6579687 6.9121175,10.0120312 7.74165647,10.0120312 C8.57119543,10.0120312 9.24585883,10.6579687 9.24585883,11.4521875 C9.24161567,11.84625 9.07613219,12.20375 8.80881273,12.46375 L8.80881273,12.46375 Z" fill="#ccc"></path>
</svg>