<svg xmlns="http://www.w3.org/2000/svg" width="24" height="24" viewBox="0 0 24 24"><g fill="none" fill-rule="evenodd" transform="translate(4 4)"><rect width="16" height="16" fill="#1C74E8" rx="4"/><path fill="#FFF" fill-rule="nonzero" d="M5,0.00154849609 C2.82339574,0.00154849609 0.935695596,1.21819361 0.000209853516,2.99806686 C0.935695596,4.77790013 2.82340572,5.99455523 5,5.99455523 C7.17659428,5.99455523 9.0643044,4.77791012 9.99979015,2.99806686 C9.0643044,1.21819361 7.17659427,0.00154849609 5,0.00154849609 Z M5,5.00231798 C3.8752226,5.00231798 2.96344079,4.10497638 2.96344079,2.99806687 C2.96344079,1.89112737 3.8752326,0.993785771 5,0.993785771 C6.12474742,0.993785771 7.03653923,1.89112737 7.03653923,2.99806687 C7.03653923,4.10496639 6.12474742,5.00231798 5,5.00231798 Z" transform="translate(3 5)"/></g></svg>