<svg xmlns="http://www.w3.org/2000/svg" width="24" height="24" viewBox="0 0 24 24"><g fill="none" fill-rule="evenodd" transform="translate(4 4)"><rect width="16" height="16" fill="#CCC" rx="4"/><g fill="#FFF" fill-rule="nonzero" transform="translate(3 4)"><path d="M4.99979015,0 C2.82318589,0 0.935485742,1.21664512 0,2.99651836 C0.935485742,4.77635163 2.82319587,5.99300674 4.99979015,5.99300674 C7.17638442,5.99300674 9.06409455,4.77636162 9.99958029,2.99651836 C9.06409455,1.21664512 7.17638441,0 4.99979015,0 Z M4.99979015,5.00076948 C3.87501274,5.00076948 2.96323094,4.10342788 2.96323094,2.99651837 C2.96323094,1.88957888 3.87502274,0.992237275 4.99979015,0.992237275 C6.12453757,0.992237275 7.03632937,1.88957888 7.03632937,2.99651837 C7.03632937,4.10341789 6.12453757,5.00076948 4.99979015,5.00076948 Z" transform="translate(0 1.002)"/><path d="M7.09292341,0.209419739 C7.25342791,-0.015286554 7.56570295,-0.0673323947 7.79040924,0.0931721005 C7.99014817,0.235842763 8.05346402,0.498430896 7.95234086,0.71284086 L7.90665688,0.790657933 L2.90665688,7.79065793 C2.74615239,8.01536423 2.43387734,8.06741007 2.20917105,7.90690557 C2.00943212,7.76423491 1.94611627,7.50164678 2.04723943,7.28723681 L2.09292341,7.20941974 L7.09292341,0.209419739 Z"/></g></g></svg>